<?xml version="1.0" standalone="no"?>
<!DOCTYPE svg PUBLIC "-//W3C//DTD SVG 20010904//EN"
 "http://www.w3.org/TR/2001/REC-SVG-20010904/DTD/svg10.dtd">
<svg version="1.0" xmlns="http://www.w3.org/2000/svg"
 width="200.000000pt" height="200.000000pt" viewBox="0 0 200.000000 200.000000"
 preserveAspectRatio="xMidYMid meet">
<metadata>
Created by potrace 1.14, written by Peter Selinger 2001-2017
</metadata>
<g transform="translate(0.000000,200.000000) scale(0.100000,-0.100000)"
fill="#000000" stroke="none">
<path d="M0 1000 l0 -1000 1000 0 1000 0 0 1000 0 1000 -1000 0 -1000 0 0
-1000z m1380 851 c0 -6 -6 -11 -12 -12 -7 0 2 -7 20 -15 17 -8 32 -19 32 -25
0 -5 4 -8 9 -5 5 3 11 -10 13 -30 2 -19 0 -38 -4 -40 -5 -3 -6 -9 -3 -14 3 -4
-6 -19 -20 -31 -24 -23 -34 -46 -15 -34 5 3 21 3 35 -1 l25 -6 0 -158 0 -158
-52 2 c-36 2 -63 -3 -83 -15 -31 -18 -33 -19 -62 -19 -15 0 -16 -2 -3 -10 13
-8 12 -10 -2 -10 -10 0 -18 -4 -18 -10 0 -5 -8 -6 -17 -3 -17 7 -17 5 0 -21
l18 -27 -24 16 c-24 15 -25 15 -29 -9 -4 -19 0 -27 15 -32 14 -4 16 -8 7 -14
-6 -4 -12 -11 -12 -16 1 -5 -7 -8 -16 -6 -13 2 -14 1 -4 -6 11 -7 10 -12 -3
-26 -15 -15 -15 -16 6 -16 12 0 20 3 16 6 -3 3 3 15 13 27 11 11 23 18 26 14
4 -3 -1 -13 -10 -22 -20 -20 -20 -22 -1 -22 8 0 11 5 8 10 -4 6 0 8 10 4 11
-4 17 -1 17 7 0 10 7 12 22 8 14 -3 19 -1 14 6 -3 6 -15 9 -26 7 -13 -2 -20 2
-20 11 0 16 26 19 35 4 3 -5 22 -7 43 -5 29 4 33 2 20 -6 -10 -5 -18 -15 -18
-20 0 -6 5 -7 12 -3 7 5 8 3 3 -6 -5 -8 -3 -11 6 -8 8 3 13 10 12 16 -2 6 4 9
12 6 8 -4 12 -11 9 -16 -4 -6 2 -7 16 -3 15 5 20 3 16 -3 -3 -6 -1 -14 4 -17
8 -5 6 -13 -6 -26 -16 -18 -18 -18 -30 -1 -21 27 -16 3 6 -28 11 -15 17 -30
13 -34 -3 -3 -215 -6 -470 -6 l-463 0 -1 28 -2 27 -4 -27 -4 -28 -180 0 c-137
0 -179 3 -179 13 1 43 71 59 103 23 l18 -21 -5 28 c-4 15 -2 27 3 27 5 0 8 8
7 17 -2 10 7 25 18 35 12 9 16 17 10 18 -17 0 -25 27 -8 27 8 0 14 -5 14 -11
0 -6 8 -1 18 10 9 12 26 26 37 32 16 9 17 11 4 12 -20 0 -33 27 -17 36 7 4 6
9 -3 15 -10 6 -3 8 19 7 29 -2 38 -12 33 -41 -1 -4 12 -1 28 8 17 8 39 15 51
15 12 0 19 4 16 9 -3 5 1 12 9 15 9 3 18 -1 22 -10 3 -9 13 -14 24 -11 11 3
19 1 19 -4 0 -6 8 -6 19 0 15 9 20 7 24 -11 4 -14 11 -19 21 -15 10 4 16 1 16
-8 0 -8 6 -15 13 -15 8 0 26 -13 40 -30 15 -17 24 -30 21 -30 -4 0 0 -7 7 -16
8 -9 19 -35 26 -58 l11 -41 2 50 c2 64 9 104 21 126 6 12 5 20 -3 25 -7 5 -3
10 13 16 22 8 22 10 7 19 -24 13 -23 33 1 26 23 -6 32 11 24 43 -5 17 -2 21
13 18 14 -2 18 2 16 16 -2 12 1 16 9 11 12 -8 9 18 -6 57 -5 11 2 14 25 13 17
-1 33 2 36 7 3 4 11 5 17 2 8 -5 8 -3 0 7 -18 18 -16 30 2 22 9 -3 23 1 33 9
9 9 24 18 32 21 11 4 10 6 -4 6 -11 1 -27 8 -37 17 -16 14 -16 18 -4 30 8 8
12 21 9 28 -4 10 3 14 28 13 38 -2 61 -27 51 -54 -5 -14 -2 -14 14 4 11 13 23
20 27 16 3 -3 6 2 6 12 0 15 2 16 17 4 9 -8 14 -9 11 -4 -13 21 18 45 51 40
25 -3 31 -1 27 11 -6 17 6 18 22 2 8 -8 15 -8 24 -1 7 6 22 9 33 7 11 -2 28
-1 37 2 15 4 14 9 -10 35 -28 32 -34 59 -17 72 6 4 4 11 -5 17 -13 8 -12 10 5
11 11 0 14 3 8 6 -20 7 -15 23 6 23 10 0 24 7 31 15 7 9 21 13 31 10 14 -5 17
-2 13 9 -4 9 -1 23 6 31 10 12 14 12 26 0 8 -7 14 -18 14 -24z m104 -212 c-4
-7 2 -9 17 -7 15 2 23 -2 22 -9 -2 -7 3 -10 11 -7 8 3 17 1 21 -5 4 -8 11 -6
21 3 8 9 22 12 30 9 11 -4 12 -9 5 -16 -14 -14 -14 -30 -1 -22 6 3 10 1 10 -5
0 -7 7 -10 15 -6 8 3 15 0 15 -7 0 -7 12 -20 25 -30 24 -17 25 -17 31 8 6 24
16 30 39 25 6 -1 20 -2 32 -2 19 0 21 -5 16 -29 -4 -21 -2 -29 8 -29 8 0 1 -7
-15 -15 -15 -8 -35 -15 -44 -15 -10 0 -7 -7 12 -25 14 -13 26 -30 26 -37 0 -9
3 -9 10 2 5 8 10 12 10 8 0 -3 3 -14 7 -24 5 -12 3 -15 -6 -9 -7 4 -5 -4 4
-19 12 -18 23 -25 35 -21 9 3 22 -1 29 -8 15 -18 -11 -42 -35 -33 -14 5 -15 4
-4 -9 7 -8 9 -15 5 -15 -4 0 -2 -7 5 -15 6 -8 9 -19 5 -25 -3 -5 1 -13 9 -16
20 -8 21 -34 1 -34 -18 0 -20 -20 -2 -21 8 0 8 -2 1 -5 -6 -3 -9 -16 -6 -31 3
-16 1 -24 -6 -20 -5 4 -12 0 -16 -8 -3 -8 -1 -15 4 -15 6 0 10 -4 10 -10 0 -5
-6 -7 -13 -5 -7 3 -18 -8 -25 -25 -18 -40 -59 -60 -126 -60 l-55 0 3 43 c2 27
8 42 17 43 46 5 45 4 28 14 -12 7 -25 5 -44 -4 -27 -14 -29 -20 -14 -48 7 -12
6 -18 -2 -18 -6 0 -9 -7 -5 -15 4 -11 -2 -15 -24 -15 -17 0 -30 5 -30 11 0 5
4 8 8 5 5 -3 9 1 9 8 0 8 -7 12 -14 9 -8 -3 -13 -2 -12 3 3 19 -14 53 -24 47
-6 -4 -7 -1 -2 7 6 10 11 9 22 -5 7 -11 13 -13 13 -6 0 7 5 9 10 6 6 -3 10 1
10 10 0 10 -5 13 -12 9 -7 -4 -8 -3 -4 5 6 9 11 9 22 0 18 -15 18 -14 -8 -40
-20 -19 -21 -21 -4 -15 12 4 23 1 28 -6 6 -8 7 -5 3 10 -4 13 -2 29 5 37 9 10
7 16 -7 24 -10 6 -13 11 -7 11 7 0 14 10 18 22 4 18 8 20 18 10 17 -17 33 -15
18 3 -11 13 -10 14 4 9 15 -6 15 -3 5 20 -9 18 -20 26 -38 26 -20 0 -22 3 -12
9 12 8 13 12 1 25 -7 9 -15 14 -17 12 -3 -2 -13 4 -24 15 -11 11 -25 16 -35
12 -13 -5 -15 -3 -9 8 4 8 5 11 0 7 -4 -4 -16 -3 -26 3 -17 9 -19 24 -19 168
0 87 3 161 7 164 10 11 15 8 7 -4z m-85 -350 c6 9 10 9 19 -1 9 -11 5 -14 -21
-14 -33 0 -47 11 -47 36 1 10 7 7 21 -9 15 -18 22 -22 28 -12z m-64 0 c-6 -16
-4 -20 6 -14 8 5 11 4 6 0 -11 -12 -47 -13 -54 -2 -3 6 -2 7 4 4 5 -3 16 3 23
14 19 25 23 24 15 -2z m112 -11 c-3 -7 -5 -2 -5 12 0 14 2 19 5 13 2 -7 2 -19
0 -25z m67 -13 c-7 -17 -30 -20 -39 -5 -3 5 0 7 8 4 8 -3 18 -1 22 5 9 16 15
13 9 -4z m33 0 c0 -8 -4 -15 -9 -15 -10 0 -11 14 -1 23 9 10 10 9 10 -8z
m-258 -28 c1 6 9 12 19 12 9 0 30 2 46 5 30 5 53 -10 50 -31 -1 -7 -2 -19 -3
-25 -1 -9 -4 -8 -11 2 -5 8 -19 16 -30 16 l-21 1 21 -21 c11 -12 20 -26 20
-32 0 -5 -4 -3 -9 5 -12 18 -41 23 -41 8 0 -7 -5 -5 -10 3 -7 11 -10 12 -10 2
0 -10 -9 -12 -32 -7 -40 9 -40 8 -32 29 3 9 13 16 21 16 12 0 13 3 4 13 -6 8
-8 17 -4 21 4 4 11 -1 14 -11 4 -10 8 -13 8 -6z m167 11 c4 -7 4 -10 -1 -6 -4
4 -14 3 -22 -4 -11 -8 -12 -7 -7 6 7 19 20 21 30 4z m51 -14 c-3 -3 -12 -4
-19 -1 -8 3 -5 6 6 6 11 1 17 -2 13 -5z m-23 -29 c3 -8 1 -15 -4 -15 -6 0 -10
7 -10 15 0 8 2 15 4 15 2 0 6 -7 10 -15z m136 -6 c0 -5 -4 -9 -9 -9 -5 0 -12
-9 -16 -19 -4 -14 -11 -18 -23 -14 -10 4 -12 8 -4 11 7 2 10 8 6 13 -3 5 0 9
7 9 8 0 9 3 0 14 -9 11 -6 12 14 8 14 -2 25 -8 25 -13z m-160 -9 c0 -5 -2 -10
-4 -10 -3 0 -8 5 -11 10 -3 6 -1 10 4 10 6 0 11 -4 11 -10z m-55 -19 c3 -5 2
-12 -3 -15 -5 -3 -9 1 -9 9 0 17 3 19 12 6z m120 -151 c3 -14 -2 -20 -15 -20
-10 0 -22 5 -26 12 -4 7 -3 8 4 4 12 -7 16 9 13 44 -2 21 19 -14 24 -40z m-81
25 c-4 -8 -1 -15 5 -15 6 0 11 -5 11 -11 0 -8 -5 -8 -15 1 -17 14 -20 40 -5
40 5 0 7 -7 4 -15z m-983 -82 l2 -28 4 28 4 27 463 0 c254 0 466 -3 469 -6 4
-4 -2 -19 -13 -34 -22 -31 -27 -55 -6 -28 12 17 14 17 30 -1 12 -13 14 -21 6
-26 -5 -3 -7 -11 -4 -17 4 -6 -1 -8 -16 -3 -14 4 -20 3 -16 -3 3 -5 -1 -12 -9
-16 -8 -3 -14 0 -12 6 1 6 -4 13 -12 16 -9 3 -11 0 -6 -8 5 -9 4 -11 -3 -6 -7
4 -12 3 -12 -3 0 -5 8 -15 17 -20 14 -8 10 -10 -19 -6 -21 2 -40 0 -43 -5 -9
-15 -35 -12 -35 4 0 9 7 13 20 11 11 -2 23 1 26 7 5 7 0 9 -14 6 -15 -4 -22
-2 -22 8 0 8 -6 11 -17 7 -10 -4 -14 -2 -10 4 3 5 0 10 -8 10 -19 0 -19 -2 1
-22 9 -9 14 -19 10 -22 -3 -4 -15 3 -26 14 -10 12 -16 24 -13 27 4 3 -4 6 -16
6 -21 0 -21 -1 -6 -16 13 -14 14 -19 3 -26 -10 -7 -10 -8 2 -6 9 2 16 -1 17
-6 1 -5 7 -12 13 -16 9 -6 7 -10 -7 -14 -15 -5 -19 -13 -15 -32 4 -24 5 -24
29 -9 l24 16 -18 -27 c-17 -26 -17 -28 0 -21 9 3 17 2 17 -3 0 -6 8 -10 18
-10 14 0 15 -2 2 -10 -13 -8 -12 -10 3 -10 9 0 18 1 20 2 1 2 18 -7 37 -18 25
-15 49 -20 88 -18 l52 2 0 -158 0 -158 -25 -6 c-14 -4 -30 -4 -35 -1 -19 12
-9 -11 15 -34 14 -12 23 -27 20 -31 -3 -5 -2 -11 3 -14 4 -2 6 -21 4 -40 -2
-20 -8 -33 -13 -30 -5 3 -9 0 -9 -5 0 -6 -15 -17 -32 -25 -18 -8 -27 -15 -20
-15 16 -1 15 -19 -2 -36 -12 -12 -16 -12 -26 0 -7 8 -10 22 -6 31 4 11 1 14
-13 9 -10 -3 -24 1 -31 10 -7 8 -21 15 -31 15 -21 0 -26 16 -6 23 6 3 3 6 -8
6 -17 1 -18 3 -5 11 9 6 11 13 5 18 -17 12 -11 39 17 71 24 26 25 31 10 35 -9
3 -26 4 -37 2 -11 -2 -26 1 -33 7 -9 7 -16 7 -24 -1 -16 -16 -28 -15 -22 2 4
12 -2 14 -27 11 -33 -5 -64 19 -51 40 3 5 -2 4 -11 -4 -15 -12 -17 -11 -17 4
0 10 -3 15 -6 12 -4 -4 -16 3 -27 16 -16 18 -19 18 -14 4 10 -27 -13 -52 -51
-54 -25 -1 -32 3 -28 13 3 7 -1 20 -9 28 -12 12 -12 16 4 30 10 9 26 16 37 17
14 0 15 2 4 6 -8 3 -23 12 -32 21 -10 8 -24 12 -33 9 -18 -8 -20 4 -2 22 8 10
8 12 0 7 -6 -3 -14 -2 -17 2 -3 5 -19 8 -36 7 -23 -1 -30 2 -25 13 15 39 18
65 6 57 -8 -5 -11 -1 -9 11 2 14 -2 18 -16 16 -15 -3 -18 1 -13 18 8 32 -1 49
-24 43 -24 -7 -25 13 -1 26 15 9 15 11 -7 19 -16 6 -20 11 -13 16 8 5 9 13 3
25 -12 22 -19 62 -21 126 l-2 50 -11 -41 c-7 -23 -18 -49 -26 -58 -7 -9 -11
-16 -7 -16 3 0 -6 -13 -21 -30 -14 -16 -32 -30 -40 -30 -7 0 -13 -7 -13 -15 0
-9 -6 -12 -16 -8 -10 4 -17 -1 -21 -15 -4 -18 -9 -20 -24 -11 -11 6 -19 6 -19
0 0 -5 -8 -7 -19 -4 -11 3 -21 -2 -24 -11 -4 -9 -13 -13 -22 -10 -8 3 -12 10
-9 15 3 5 -4 9 -16 9 -12 0 -34 7 -51 15 -16 9 -29 12 -28 8 5 -29 -4 -39 -33
-41 -22 -1 -29 1 -19 7 9 6 10 11 3 15 -16 9 -3 36 17 36 13 1 12 3 -4 12 -11
6 -28 20 -37 32 -10 11 -18 16 -18 10 0 -6 -6 -11 -14 -11 -17 0 -9 27 8 27 6
1 2 9 -10 18 -11 10 -20 25 -18 35 1 9 -2 17 -7 17 -5 0 -7 12 -3 28 l5 27
-18 -21 c-32 -36 -102 -20 -103 24 0 9 43 12 180 12 l180 0 1 -27z m1064 7
c-5 -26 -26 -61 -24 -40 3 35 -1 51 -13 44 -7 -4 -8 -3 -4 4 4 7 16 12 26 12
13 0 18 -6 15 -20z m79 5 c-4 -8 -1 -15 5 -15 8 0 9 -6 2 -17 -15 -29 -13 -35
14 -49 19 -9 32 -11 44 -4 17 10 18 9 -28 14 -9 1 -15 16 -17 44 l-3 42 55 0
c67 0 108 -20 126 -60 7 -17 18 -28 25 -25 7 2 13 0 13 -5 0 -6 -4 -10 -10
-10 -5 0 -7 -7 -4 -15 4 -8 11 -12 16 -8 7 4 9 -4 6 -21 -3 -15 -1 -26 6 -27
7 0 6 -3 -1 -6 -18 -7 -16 -23 2 -23 20 0 19 -26 -1 -34 -8 -3 -12 -11 -9 -16
4 -6 1 -17 -5 -25 -7 -8 -9 -15 -5 -15 4 0 2 -7 -5 -15 -11 -13 -10 -14 4 -9
24 9 50 -15 35 -33 -7 -7 -20 -11 -29 -8 -12 4 -23 -3 -35 -21 -9 -15 -12 -23
-6 -20 13 8 14 4 5 -19 -5 -13 -8 -14 -15 -3 -7 10 -9 10 -9 0 0 -7 -12 -24
-26 -37 -19 -18 -22 -25 -12 -25 9 0 29 -7 44 -15 16 -8 23 -15 15 -15 -10 0
-12 -8 -8 -29 5 -24 3 -29 -16 -29 -12 0 -26 -1 -32 -2 -23 -5 -33 1 -39 25
-6 25 -7 25 -31 8 -13 -10 -25 -23 -25 -30 0 -7 -7 -10 -15 -7 -8 4 -15 1 -15
-6 0 -6 -4 -8 -10 -5 -13 8 -13 -8 1 -22 7 -7 6 -12 -5 -16 -8 -3 -22 0 -30 9
-10 9 -17 11 -21 3 -4 -6 -13 -8 -21 -5 -8 3 -13 0 -11 -7 1 -7 -7 -11 -22 -9
-16 3 -21 0 -16 -9 5 -8 4 -10 -3 -5 -8 5 -12 57 -12 166 0 145 2 160 19 169
10 6 22 7 26 3 5 -4 4 -1 0 7 -6 11 -4 13 9 8 10 -4 24 1 35 12 11 11 21 17
24 15 2 -2 10 3 17 12 12 13 11 17 -1 25 -10 6 -8 9 12 9 18 0 29 8 38 26 10
23 10 26 -5 20 -14 -5 -15 -4 -4 9 15 18 -1 20 -18 3 -10 -10 -14 -8 -18 10
-4 12 -11 22 -18 22 -6 0 -3 5 7 11 14 8 16 14 7 24 -7 8 -9 24 -5 37 4 15 3
18 -3 10 -5 -7 -16 -10 -28 -6 -17 6 -16 4 4 -15 26 -26 26 -25 8 -40 -11 -9
-16 -9 -22 0 -4 8 -3 9 4 5 7 -4 12 -1 12 9 0 9 -4 13 -10 10 -5 -3 -10 -1
-10 6 0 7 -6 5 -13 -6 -11 -14 -16 -15 -22 -5 -5 8 -4 11 2 7 10 -6 27 28 24
47 -1 5 4 6 12 3 7 -3 14 1 14 9 0 7 -4 11 -9 8 -4 -3 -8 0 -8 5 0 6 13 11 30
11 22 0 28 -4 24 -15z m-153 -14 c-7 -5 -10 -14 -7 -20 4 -6 2 -11 -3 -11 -6
0 -11 6 -11 13 0 16 21 39 29 31 3 -3 -1 -9 -8 -13z m-46 -130 c3 -5 2 -12 -3
-15 -5 -3 -9 1 -9 9 0 17 3 19 12 6z m207 -31 c19 0 6 -18 -17 -22 -20 -4 -23
-3 -14 8 9 11 8 14 0 14 -7 0 -9 5 -6 10 3 6 0 10 -7 10 -9 0 -9 3 2 10 11 7
17 4 24 -10 5 -11 13 -20 18 -20z m-251 -4 c-22 -23 -22 -23 -1 -22 11 0 25 8
30 16 7 10 10 11 11 3 1 -7 2 -19 3 -25 3 -22 -20 -37 -50 -32 -16 3 -36 5
-44 6 -8 0 -18 6 -22 12 -5 7 -8 4 -8 -7 0 -10 -5 -15 -10 -12 -8 5 -7 11 1
21 9 11 8 14 -4 14 -8 0 -18 7 -21 16 -8 21 -8 20 32 29 23 5 32 3 32 -7 0
-10 3 -9 10 2 5 8 10 10 10 3 0 -15 33 -10 38 6 2 7 7 10 10 7 3 -4 -5 -17
-17 -30z m99 4 c0 -5 -5 -10 -11 -10 -5 0 -7 5 -4 10 3 6 8 10 11 10 2 0 4 -4
4 -10z m24 -15 c-4 -8 -8 -15 -10 -15 -2 0 -4 7 -4 15 0 8 4 15 10 15 5 0 7
-7 4 -15z m-29 -37 c5 4 5 1 1 -5 -10 -18 -23 -16 -30 3 -5 13 -4 14 7 6 8 -7
18 -8 22 -4z m52 6 c-3 -3 -12 -4 -19 -1 -8 3 -5 6 6 6 11 1 17 -2 13 -5z m7
-30 c5 -14 4 -15 -8 -5 -8 7 -21 9 -27 5 -8 -4 -9 -3 -5 4 10 17 33 15 40 -4z
m33 1 c0 -8 -4 -12 -9 -9 -4 3 -8 9 -8 15 0 5 4 9 8 9 5 0 9 -7 9 -15z m-200
-10 c5 -4 2 -5 -6 0 -10 6 -12 2 -6 -16 l7 -24 -19 22 c-11 13 -24 19 -28 15
-5 -4 -5 -2 -2 4 7 12 43 12 54 -1z m71 -13 c-9 -10 -13 -10 -19 -1 -6 10 -13
6 -28 -12 -11 -13 -20 -19 -21 -12 0 28 12 39 45 39 26 -1 31 -4 23 -14z m29
-14 c-3 -7 -5 -2 -5 12 0 14 2 19 5 13 2 -7 2 -19 0 -25z"/>
<path d="M1325 1750 c-8 -14 3 -30 21 -30 8 0 14 9 14 20 0 21 -24 28 -35 10z"/>
<path d="M1160 1194 c0 -13 18 -39 24 -34 2 3 -2 14 -10 24 -8 11 -14 16 -14
10z"/>
<path d="M1148 1123 c7 -3 16 -2 19 1 4 3 -2 6 -13 5 -11 0 -14 -3 -6 -6z"/>
<path d="M1312 1126 c4 -5 3 -15 -3 -22 -9 -11 -7 -15 6 -20 28 -11 38 11 13
32 -13 10 -20 15 -16 10z"/>
<path d="M1269 1108 c-1 -7 -1 -17 0 -22 1 -4 -3 -14 -9 -21 -10 -11 -7 -12
14 -2 14 7 20 15 14 18 -6 4 -8 14 -5 23 4 9 2 16 -3 16 -6 0 -11 -6 -11 -12z"/>
<path d="M1360 1100 c0 -5 5 -10 10 -10 6 0 10 5 10 10 0 6 -4 10 -10 10 -5 0
-10 -4 -10 -10z"/>
<path d="M1393 1084 c0 -16 13 -19 21 -5 3 5 0 11 -7 14 -8 3 -14 -1 -14 -9z"/>
<path d="M1350 1068 c0 -10 -5 -18 -11 -18 -5 0 -7 5 -4 10 4 7 -3 8 -22 4
-37 -9 -42 -14 -12 -14 20 0 21 -2 9 -11 -12 -9 -10 -10 8 -6 16 4 22 2 19 -7
-4 -9 2 -11 21 -7 21 4 23 6 8 9 -14 3 -15 6 -6 12 9 6 10 12 1 26 -9 17 -10
17 -11 2z"/>
<path d="M1217 1059 c7 -7 15 -10 18 -7 3 3 -2 9 -12 12 -14 6 -15 5 -6 -5z"/>
<path d="M1258 1033 c6 -2 18 -2 25 0 6 3 1 5 -13 5 -14 0 -19 -2 -12 -5z"/>
<path d="M1228 1013 c7 -3 16 -2 19 1 4 3 -2 6 -13 5 -11 0 -14 -3 -6 -6z"/>
<path d="M1268 1013 c6 -2 18 -2 25 0 6 3 1 5 -13 5 -14 0 -19 -2 -12 -5z"/>
<path d="M1621 1124 c0 -11 3 -14 6 -6 3 7 2 16 -1 19 -3 4 -6 -2 -5 -13z"/>
<path d="M1645 1060 c-5 -8 10 -50 18 -50 2 0 3 9 4 20 1 13 -2 18 -9 14 -7
-5 -9 -1 -5 9 7 18 2 23 -8 7z"/>
<path d="M1366 1242 c-2 -4 4 -14 15 -20 19 -12 19 -11 9 8 -12 22 -16 24 -24
12z"/>
<path d="M1275 1210 c-10 -11 -13 -20 -7 -20 6 0 14 5 17 11 4 6 13 8 19 6 7
-3 13 1 13 9 0 20 -21 17 -42 -6z"/>
<path d="M1228 973 c7 -3 16 -2 19 1 4 3 -2 6 -13 5 -11 0 -14 -3 -6 -6z"/>
<path d="M1268 973 c6 -2 18 -2 25 0 6 3 1 5 -13 5 -14 0 -19 -2 -12 -5z"/>
<path d="M1337 964 c3 -9 -3 -11 -19 -7 -18 4 -20 3 -8 -6 12 -9 11 -11 -9
-11 -30 0 -25 -5 12 -14 19 -4 26 -3 22 4 -3 5 -1 10 4 10 6 0 11 -8 11 -17 1
-16 2 -16 11 1 9 14 8 20 -1 26 -9 6 -8 9 6 12 15 3 13 5 -8 9 -19 4 -25 2
-21 -7z"/>
<path d="M1258 953 c6 -2 18 -2 25 0 6 3 1 5 -13 5 -14 0 -19 -2 -12 -5z"/>
<path d="M1215 930 c-3 -6 1 -7 9 -4 18 7 21 14 7 14 -6 0 -13 -4 -16 -10z"/>
<path d="M1260 925 c6 -7 10 -17 9 -21 -3 -19 1 -34 11 -34 5 0 7 7 3 16 -3 9
-1 19 5 23 6 3 0 11 -14 18 -21 10 -24 9 -14 -2z"/>
<path d="M1393 906 c0 -8 6 -12 14 -9 7 3 10 9 7 14 -8 14 -21 11 -21 -5z"/>
<path d="M1305 901 c-3 -5 -1 -12 5 -16 6 -4 7 -12 3 -18 -3 -7 3 -4 15 7 12
10 19 23 16 27 -7 12 -31 11 -39 0z"/>
<path d="M1360 890 c0 -5 5 -10 10 -10 6 0 10 5 10 10 0 6 -4 10 -10 10 -5 0
-10 -4 -10 -10z"/>
<path d="M1148 863 c7 -3 16 -2 19 1 4 3 -2 6 -13 5 -11 0 -14 -3 -6 -6z"/>
<path d="M1166 814 c-9 -24 -2 -26 12 -4 7 11 8 20 3 20 -5 0 -12 -7 -15 -16z"/>
<path d="M1325 260 c-8 -14 3 -30 21 -30 8 0 14 9 14 20 0 21 -24 28 -35 10z"/>
<path d="M1649 959 c-8 -16 -8 -24 1 -33 8 -8 9 -6 4 8 -5 13 -4 17 4 12 7 -4
10 1 9 14 -2 25 -4 25 -18 -1z"/>
<path d="M1621 864 c0 -11 3 -14 6 -6 3 7 2 16 -1 19 -3 4 -6 -2 -5 -13z"/>
<path d="M1275 780 c21 -23 42 -26 42 -6 0 8 -6 12 -13 9 -6 -2 -15 0 -19 6
-3 6 -11 11 -17 11 -6 0 -3 -9 7 -20z"/>
<path d="M1377 766 c-11 -8 -14 -17 -8 -20 5 -4 15 3 21 14 13 23 11 24 -13 6z"/>
</g>
</svg>
